<mxfile host="app.diagrams.net" modified="2023-07-16T18:52:50.151Z" agent="Mozilla/5.0 (Windows NT 10.0; Win64; x64) AppleWebKit/537.36 (KHTML, like Gecko) Chrome/114.0.0.0 Safari/537.36 Edg/114.0.1823.82" etag="CAoRdMw5NIPTH1JD-IQt" version="21.6.2" type="device">
  <diagram id="Gi5_93j05Tq5kSE1P_lF" name="Page-2">
    <mxGraphModel dx="1266" dy="746" grid="1" gridSize="10" guides="1" tooltips="1" connect="1" arrows="1" fold="1" page="1" pageScale="1" pageWidth="850" pageHeight="1100" math="0" shadow="0">
      <root>
        <mxCell id="0" />
        <mxCell id="1" parent="0" />
        <mxCell id="ZZxpTI72Ch4nWyN-9ozh-1" value="Backend" style="shape=umlLifeline;perimeter=lifelinePerimeter;whiteSpace=wrap;html=1;container=0;collapsible=0;recursiveResize=0;outlineConnect=0;rounded=1;shadow=0;comic=0;labelBackgroundColor=none;strokeWidth=1;fontFamily=Verdana;fontSize=12;align=center;" parent="1" vertex="1">
          <mxGeometry x="620" y="90" width="100" height="1670" as="geometry" />
        </mxCell>
        <mxCell id="ZZxpTI72Ch4nWyN-9ozh-6" value="Base de datos" style="shape=umlLifeline;perimeter=lifelinePerimeter;whiteSpace=wrap;html=1;container=0;collapsible=0;recursiveResize=0;outlineConnect=0;rounded=1;shadow=0;comic=0;labelBackgroundColor=none;strokeWidth=1;fontFamily=Verdana;fontSize=12;align=center;" parent="1" vertex="1">
          <mxGeometry x="820" y="90" width="100" height="1670" as="geometry" />
        </mxCell>
        <mxCell id="ZZxpTI72Ch4nWyN-9ozh-11" value="Entrenador" style="shape=umlLifeline;perimeter=lifelinePerimeter;whiteSpace=wrap;html=1;container=0;collapsible=0;recursiveResize=0;outlineConnect=0;rounded=1;shadow=0;comic=0;labelBackgroundColor=none;strokeWidth=1;fontFamily=Verdana;fontSize=12;align=center;" parent="1" vertex="1">
          <mxGeometry x="230" y="90" width="120" height="1670" as="geometry" />
        </mxCell>
        <mxCell id="ZZxpTI72Ch4nWyN-9ozh-21" value="Frontend" style="shape=umlLifeline;perimeter=lifelinePerimeter;whiteSpace=wrap;html=1;container=0;collapsible=0;recursiveResize=0;outlineConnect=0;rounded=1;shadow=0;comic=0;labelBackgroundColor=none;strokeWidth=1;fontFamily=Verdana;fontSize=12;align=center;" parent="1" vertex="1">
          <mxGeometry x="435.13" y="90" width="100" height="1670" as="geometry" />
        </mxCell>
        <mxCell id="ZZxpTI72Ch4nWyN-9ozh-12" value="" style="html=1;points=[];perimeter=orthogonalPerimeter;rounded=0;shadow=0;comic=0;labelBackgroundColor=none;strokeWidth=1;fontFamily=Verdana;fontSize=12;align=center;" parent="1" vertex="1">
          <mxGeometry x="285" y="180" width="10" height="270" as="geometry" />
        </mxCell>
        <mxCell id="mXo3GQkAn6UmXGM8vVlt-14" style="edgeStyle=orthogonalEdgeStyle;rounded=0;orthogonalLoop=1;jettySize=auto;html=1;" parent="1" source="UpYW0VXzlztQtEfswIcR-47" target="UpYW0VXzlztQtEfswIcR-48" edge="1">
          <mxGeometry relative="1" as="geometry">
            <Array as="points">
              <mxPoint x="770" y="270" />
              <mxPoint x="770" y="270" />
            </Array>
          </mxGeometry>
        </mxCell>
        <mxCell id="mXo3GQkAn6UmXGM8vVlt-15" value="Consultar esgrimistas" style="edgeLabel;html=1;align=center;verticalAlign=middle;resizable=0;points=[];" parent="mXo3GQkAn6UmXGM8vVlt-14" vertex="1" connectable="0">
          <mxGeometry x="-0.0632" relative="1" as="geometry">
            <mxPoint x="6" y="-11" as="offset" />
          </mxGeometry>
        </mxCell>
        <mxCell id="mXo3GQkAn6UmXGM8vVlt-18" style="edgeStyle=orthogonalEdgeStyle;rounded=0;orthogonalLoop=1;jettySize=auto;html=1;" parent="1" source="UpYW0VXzlztQtEfswIcR-47" target="UpYW0VXzlztQtEfswIcR-55" edge="1">
          <mxGeometry relative="1" as="geometry">
            <Array as="points">
              <mxPoint x="580" y="410" />
              <mxPoint x="580" y="410" />
            </Array>
          </mxGeometry>
        </mxCell>
        <mxCell id="mXo3GQkAn6UmXGM8vVlt-19" value="Enviar respuesta con &lt;br&gt;esgrimistas en formato JSON" style="edgeLabel;html=1;align=center;verticalAlign=middle;resizable=0;points=[];" parent="mXo3GQkAn6UmXGM8vVlt-18" vertex="1" connectable="0">
          <mxGeometry x="-0.0183" y="1" relative="1" as="geometry">
            <mxPoint y="-21" as="offset" />
          </mxGeometry>
        </mxCell>
        <mxCell id="UpYW0VXzlztQtEfswIcR-47" value="" style="html=1;points=[];perimeter=orthogonalPerimeter;rounded=0;shadow=0;comic=0;labelBackgroundColor=none;strokeWidth=1;fontFamily=Verdana;fontSize=12;align=center;" parent="1" vertex="1">
          <mxGeometry x="665" y="230" width="10" height="187" as="geometry" />
        </mxCell>
        <mxCell id="mXo3GQkAn6UmXGM8vVlt-16" style="edgeStyle=orthogonalEdgeStyle;rounded=0;orthogonalLoop=1;jettySize=auto;html=1;" parent="1" source="UpYW0VXzlztQtEfswIcR-48" target="UpYW0VXzlztQtEfswIcR-47" edge="1">
          <mxGeometry relative="1" as="geometry">
            <Array as="points">
              <mxPoint x="770" y="350" />
              <mxPoint x="770" y="350" />
            </Array>
          </mxGeometry>
        </mxCell>
        <mxCell id="mXo3GQkAn6UmXGM8vVlt-17" value="Encontrar esgrimistas" style="edgeLabel;html=1;align=center;verticalAlign=middle;resizable=0;points=[];" parent="mXo3GQkAn6UmXGM8vVlt-16" vertex="1" connectable="0">
          <mxGeometry x="-0.0211" y="3" relative="1" as="geometry">
            <mxPoint y="-13" as="offset" />
          </mxGeometry>
        </mxCell>
        <mxCell id="UpYW0VXzlztQtEfswIcR-48" value="" style="html=1;points=[];perimeter=orthogonalPerimeter;rounded=0;shadow=0;comic=0;labelBackgroundColor=none;strokeWidth=1;fontFamily=Verdana;fontSize=12;align=center;" parent="1" vertex="1">
          <mxGeometry x="865" y="270" width="10" height="87" as="geometry" />
        </mxCell>
        <mxCell id="UpYW0VXzlztQtEfswIcR-49" value="Ingresar a &quot;Esgrimistas&quot;" style="html=1;verticalAlign=bottom;endArrow=block;entryX=0;entryY=0;labelBackgroundColor=none;fontFamily=Verdana;fontSize=11;edgeStyle=elbowEdgeStyle;elbow=vertical;" parent="1" target="UpYW0VXzlztQtEfswIcR-55" edge="1">
          <mxGeometry x="-0.0061" relative="1" as="geometry">
            <mxPoint x="295" y="187" as="sourcePoint" />
            <mxPoint as="offset" />
          </mxGeometry>
        </mxCell>
        <mxCell id="mXo3GQkAn6UmXGM8vVlt-9" style="edgeStyle=orthogonalEdgeStyle;rounded=0;orthogonalLoop=1;jettySize=auto;html=1;" parent="1" source="UpYW0VXzlztQtEfswIcR-55" target="UpYW0VXzlztQtEfswIcR-47" edge="1">
          <mxGeometry relative="1" as="geometry">
            <Array as="points">
              <mxPoint x="580" y="230" />
              <mxPoint x="580" y="230" />
            </Array>
          </mxGeometry>
        </mxCell>
        <mxCell id="mXo3GQkAn6UmXGM8vVlt-12" value="GET request a /fencer" style="edgeLabel;html=1;align=center;verticalAlign=middle;resizable=0;points=[];" parent="mXo3GQkAn6UmXGM8vVlt-9" vertex="1" connectable="0">
          <mxGeometry x="0.1308" y="1" relative="1" as="geometry">
            <mxPoint x="-9" y="-9" as="offset" />
          </mxGeometry>
        </mxCell>
        <mxCell id="mXo3GQkAn6UmXGM8vVlt-20" style="edgeStyle=orthogonalEdgeStyle;rounded=0;orthogonalLoop=1;jettySize=auto;html=1;" parent="1" source="UpYW0VXzlztQtEfswIcR-55" target="ZZxpTI72Ch4nWyN-9ozh-12" edge="1">
          <mxGeometry relative="1" as="geometry">
            <Array as="points">
              <mxPoint x="400" y="450" />
              <mxPoint x="400" y="450" />
            </Array>
          </mxGeometry>
        </mxCell>
        <mxCell id="mXo3GQkAn6UmXGM8vVlt-21" value="Mostrar esgrimistas disponibles" style="edgeLabel;html=1;align=center;verticalAlign=middle;resizable=0;points=[];" parent="mXo3GQkAn6UmXGM8vVlt-20" vertex="1" connectable="0">
          <mxGeometry x="0.2258" y="3" relative="1" as="geometry">
            <mxPoint x="23" y="-13" as="offset" />
          </mxGeometry>
        </mxCell>
        <mxCell id="UpYW0VXzlztQtEfswIcR-55" value="" style="html=1;points=[];perimeter=orthogonalPerimeter;rounded=0;shadow=0;comic=0;labelBackgroundColor=none;strokeWidth=1;fontFamily=Verdana;fontSize=12;align=center;" parent="1" vertex="1">
          <mxGeometry x="480.13" y="187" width="10" height="270" as="geometry" />
        </mxCell>
        <mxCell id="mXo3GQkAn6UmXGM8vVlt-37" value="" style="html=1;points=[];perimeter=orthogonalPerimeter;rounded=0;shadow=0;comic=0;labelBackgroundColor=none;strokeWidth=1;fontFamily=Verdana;fontSize=12;align=center;" parent="1" vertex="1">
          <mxGeometry x="285" y="490" width="10" height="270" as="geometry" />
        </mxCell>
        <mxCell id="mXo3GQkAn6UmXGM8vVlt-38" style="edgeStyle=orthogonalEdgeStyle;rounded=0;orthogonalLoop=1;jettySize=auto;html=1;" parent="1" source="mXo3GQkAn6UmXGM8vVlt-42" target="mXo3GQkAn6UmXGM8vVlt-45" edge="1">
          <mxGeometry relative="1" as="geometry">
            <Array as="points">
              <mxPoint x="770" y="580" />
              <mxPoint x="770" y="580" />
            </Array>
          </mxGeometry>
        </mxCell>
        <mxCell id="mXo3GQkAn6UmXGM8vVlt-39" value="Consultar esgrimista" style="edgeLabel;html=1;align=center;verticalAlign=middle;resizable=0;points=[];" parent="mXo3GQkAn6UmXGM8vVlt-38" vertex="1" connectable="0">
          <mxGeometry x="-0.0632" relative="1" as="geometry">
            <mxPoint x="6" y="-11" as="offset" />
          </mxGeometry>
        </mxCell>
        <mxCell id="mXo3GQkAn6UmXGM8vVlt-40" style="edgeStyle=orthogonalEdgeStyle;rounded=0;orthogonalLoop=1;jettySize=auto;html=1;" parent="1" source="mXo3GQkAn6UmXGM8vVlt-42" target="mXo3GQkAn6UmXGM8vVlt-51" edge="1">
          <mxGeometry relative="1" as="geometry">
            <Array as="points">
              <mxPoint x="580" y="720" />
              <mxPoint x="580" y="720" />
            </Array>
          </mxGeometry>
        </mxCell>
        <mxCell id="mXo3GQkAn6UmXGM8vVlt-41" value="Enviar respuesta con &lt;br&gt;esgrimista en formato JSON" style="edgeLabel;html=1;align=center;verticalAlign=middle;resizable=0;points=[];" parent="mXo3GQkAn6UmXGM8vVlt-40" vertex="1" connectable="0">
          <mxGeometry x="-0.0183" y="1" relative="1" as="geometry">
            <mxPoint y="-21" as="offset" />
          </mxGeometry>
        </mxCell>
        <mxCell id="mXo3GQkAn6UmXGM8vVlt-42" value="" style="html=1;points=[];perimeter=orthogonalPerimeter;rounded=0;shadow=0;comic=0;labelBackgroundColor=none;strokeWidth=1;fontFamily=Verdana;fontSize=12;align=center;" parent="1" vertex="1">
          <mxGeometry x="665" y="540" width="10" height="187" as="geometry" />
        </mxCell>
        <mxCell id="mXo3GQkAn6UmXGM8vVlt-43" style="edgeStyle=orthogonalEdgeStyle;rounded=0;orthogonalLoop=1;jettySize=auto;html=1;" parent="1" source="mXo3GQkAn6UmXGM8vVlt-45" target="mXo3GQkAn6UmXGM8vVlt-42" edge="1">
          <mxGeometry relative="1" as="geometry">
            <Array as="points">
              <mxPoint x="770" y="660" />
              <mxPoint x="770" y="660" />
            </Array>
          </mxGeometry>
        </mxCell>
        <mxCell id="mXo3GQkAn6UmXGM8vVlt-44" value="Encontrar esgrimista" style="edgeLabel;html=1;align=center;verticalAlign=middle;resizable=0;points=[];" parent="mXo3GQkAn6UmXGM8vVlt-43" vertex="1" connectable="0">
          <mxGeometry x="-0.0211" y="3" relative="1" as="geometry">
            <mxPoint y="-13" as="offset" />
          </mxGeometry>
        </mxCell>
        <mxCell id="mXo3GQkAn6UmXGM8vVlt-45" value="" style="html=1;points=[];perimeter=orthogonalPerimeter;rounded=0;shadow=0;comic=0;labelBackgroundColor=none;strokeWidth=1;fontFamily=Verdana;fontSize=12;align=center;" parent="1" vertex="1">
          <mxGeometry x="865" y="580" width="10" height="87" as="geometry" />
        </mxCell>
        <mxCell id="mXo3GQkAn6UmXGM8vVlt-46" value="Seleccionar un esgrimista" style="html=1;verticalAlign=bottom;endArrow=block;entryX=0;entryY=0;labelBackgroundColor=none;fontFamily=Verdana;fontSize=11;edgeStyle=elbowEdgeStyle;elbow=vertical;" parent="1" target="mXo3GQkAn6UmXGM8vVlt-51" edge="1">
          <mxGeometry x="-0.0061" relative="1" as="geometry">
            <mxPoint x="295" y="497" as="sourcePoint" />
            <mxPoint as="offset" />
          </mxGeometry>
        </mxCell>
        <mxCell id="mXo3GQkAn6UmXGM8vVlt-47" style="edgeStyle=orthogonalEdgeStyle;rounded=0;orthogonalLoop=1;jettySize=auto;html=1;" parent="1" source="mXo3GQkAn6UmXGM8vVlt-51" target="mXo3GQkAn6UmXGM8vVlt-42" edge="1">
          <mxGeometry relative="1" as="geometry">
            <Array as="points">
              <mxPoint x="580" y="540" />
              <mxPoint x="580" y="540" />
            </Array>
          </mxGeometry>
        </mxCell>
        <mxCell id="mXo3GQkAn6UmXGM8vVlt-48" value="GET request a /fencer/:id" style="edgeLabel;html=1;align=center;verticalAlign=middle;resizable=0;points=[];" parent="mXo3GQkAn6UmXGM8vVlt-47" vertex="1" connectable="0">
          <mxGeometry x="0.1308" y="1" relative="1" as="geometry">
            <mxPoint x="-9" y="-9" as="offset" />
          </mxGeometry>
        </mxCell>
        <mxCell id="mXo3GQkAn6UmXGM8vVlt-49" style="edgeStyle=orthogonalEdgeStyle;rounded=0;orthogonalLoop=1;jettySize=auto;html=1;" parent="1" source="mXo3GQkAn6UmXGM8vVlt-51" target="mXo3GQkAn6UmXGM8vVlt-37" edge="1">
          <mxGeometry relative="1" as="geometry">
            <Array as="points">
              <mxPoint x="400" y="760" />
              <mxPoint x="400" y="760" />
            </Array>
          </mxGeometry>
        </mxCell>
        <mxCell id="mXo3GQkAn6UmXGM8vVlt-50" value="Mostrar detalle del esgrimista" style="edgeLabel;html=1;align=center;verticalAlign=middle;resizable=0;points=[];" parent="mXo3GQkAn6UmXGM8vVlt-49" vertex="1" connectable="0">
          <mxGeometry x="0.2258" y="3" relative="1" as="geometry">
            <mxPoint x="23" y="-13" as="offset" />
          </mxGeometry>
        </mxCell>
        <mxCell id="mXo3GQkAn6UmXGM8vVlt-51" value="" style="html=1;points=[];perimeter=orthogonalPerimeter;rounded=0;shadow=0;comic=0;labelBackgroundColor=none;strokeWidth=1;fontFamily=Verdana;fontSize=12;align=center;" parent="1" vertex="1">
          <mxGeometry x="480.13" y="497" width="10" height="270" as="geometry" />
        </mxCell>
        <mxCell id="mXo3GQkAn6UmXGM8vVlt-52" value="" style="html=1;points=[];perimeter=orthogonalPerimeter;rounded=0;shadow=0;comic=0;labelBackgroundColor=none;strokeWidth=1;fontFamily=Verdana;fontSize=12;align=center;" parent="1" vertex="1">
          <mxGeometry x="285" y="810" width="10" height="270" as="geometry" />
        </mxCell>
        <mxCell id="mXo3GQkAn6UmXGM8vVlt-53" style="edgeStyle=orthogonalEdgeStyle;rounded=0;orthogonalLoop=1;jettySize=auto;html=1;" parent="1" source="mXo3GQkAn6UmXGM8vVlt-57" target="mXo3GQkAn6UmXGM8vVlt-60" edge="1">
          <mxGeometry relative="1" as="geometry">
            <Array as="points">
              <mxPoint x="770" y="900" />
              <mxPoint x="770" y="900" />
            </Array>
          </mxGeometry>
        </mxCell>
        <mxCell id="mXo3GQkAn6UmXGM8vVlt-54" value="Consultar objetivos del esgrimista" style="edgeLabel;html=1;align=center;verticalAlign=middle;resizable=0;points=[];" parent="mXo3GQkAn6UmXGM8vVlt-53" vertex="1" connectable="0">
          <mxGeometry x="-0.0632" relative="1" as="geometry">
            <mxPoint x="6" y="-11" as="offset" />
          </mxGeometry>
        </mxCell>
        <mxCell id="mXo3GQkAn6UmXGM8vVlt-55" style="edgeStyle=orthogonalEdgeStyle;rounded=0;orthogonalLoop=1;jettySize=auto;html=1;" parent="1" source="mXo3GQkAn6UmXGM8vVlt-57" target="mXo3GQkAn6UmXGM8vVlt-66" edge="1">
          <mxGeometry relative="1" as="geometry">
            <Array as="points">
              <mxPoint x="580" y="1040" />
              <mxPoint x="580" y="1040" />
            </Array>
          </mxGeometry>
        </mxCell>
        <mxCell id="mXo3GQkAn6UmXGM8vVlt-56" value="Enviar respuesta con &lt;br&gt;objetivos en formato JSON" style="edgeLabel;html=1;align=center;verticalAlign=middle;resizable=0;points=[];" parent="mXo3GQkAn6UmXGM8vVlt-55" vertex="1" connectable="0">
          <mxGeometry x="-0.0183" y="1" relative="1" as="geometry">
            <mxPoint y="-21" as="offset" />
          </mxGeometry>
        </mxCell>
        <mxCell id="mXo3GQkAn6UmXGM8vVlt-57" value="" style="html=1;points=[];perimeter=orthogonalPerimeter;rounded=0;shadow=0;comic=0;labelBackgroundColor=none;strokeWidth=1;fontFamily=Verdana;fontSize=12;align=center;" parent="1" vertex="1">
          <mxGeometry x="665" y="860" width="10" height="187" as="geometry" />
        </mxCell>
        <mxCell id="mXo3GQkAn6UmXGM8vVlt-58" style="edgeStyle=orthogonalEdgeStyle;rounded=0;orthogonalLoop=1;jettySize=auto;html=1;" parent="1" source="mXo3GQkAn6UmXGM8vVlt-60" target="mXo3GQkAn6UmXGM8vVlt-57" edge="1">
          <mxGeometry relative="1" as="geometry">
            <Array as="points">
              <mxPoint x="770" y="980" />
              <mxPoint x="770" y="980" />
            </Array>
          </mxGeometry>
        </mxCell>
        <mxCell id="mXo3GQkAn6UmXGM8vVlt-59" value="Encontrar objetivos del esgrimista" style="edgeLabel;html=1;align=center;verticalAlign=middle;resizable=0;points=[];" parent="mXo3GQkAn6UmXGM8vVlt-58" vertex="1" connectable="0">
          <mxGeometry x="-0.0211" y="3" relative="1" as="geometry">
            <mxPoint y="-13" as="offset" />
          </mxGeometry>
        </mxCell>
        <mxCell id="mXo3GQkAn6UmXGM8vVlt-60" value="" style="html=1;points=[];perimeter=orthogonalPerimeter;rounded=0;shadow=0;comic=0;labelBackgroundColor=none;strokeWidth=1;fontFamily=Verdana;fontSize=12;align=center;" parent="1" vertex="1">
          <mxGeometry x="865" y="900" width="10" height="87" as="geometry" />
        </mxCell>
        <mxCell id="mXo3GQkAn6UmXGM8vVlt-61" value="Navegar a &quot;Objetivos&quot;" style="html=1;verticalAlign=bottom;endArrow=block;entryX=0;entryY=0;labelBackgroundColor=none;fontFamily=Verdana;fontSize=11;edgeStyle=elbowEdgeStyle;elbow=vertical;" parent="1" target="mXo3GQkAn6UmXGM8vVlt-66" edge="1">
          <mxGeometry x="-0.0061" relative="1" as="geometry">
            <mxPoint x="295" y="817" as="sourcePoint" />
            <mxPoint as="offset" />
          </mxGeometry>
        </mxCell>
        <mxCell id="mXo3GQkAn6UmXGM8vVlt-62" style="edgeStyle=orthogonalEdgeStyle;rounded=0;orthogonalLoop=1;jettySize=auto;html=1;" parent="1" source="mXo3GQkAn6UmXGM8vVlt-66" target="mXo3GQkAn6UmXGM8vVlt-57" edge="1">
          <mxGeometry relative="1" as="geometry">
            <Array as="points">
              <mxPoint x="580" y="860" />
              <mxPoint x="580" y="860" />
            </Array>
          </mxGeometry>
        </mxCell>
        <mxCell id="mXo3GQkAn6UmXGM8vVlt-63" value="GET request &lt;br&gt;/fencer/cyclegoal_routes/:id" style="edgeLabel;html=1;align=center;verticalAlign=middle;resizable=0;points=[];" parent="mXo3GQkAn6UmXGM8vVlt-62" vertex="1" connectable="0">
          <mxGeometry x="0.1308" y="1" relative="1" as="geometry">
            <mxPoint x="-9" y="-19" as="offset" />
          </mxGeometry>
        </mxCell>
        <mxCell id="mXo3GQkAn6UmXGM8vVlt-64" style="edgeStyle=orthogonalEdgeStyle;rounded=0;orthogonalLoop=1;jettySize=auto;html=1;" parent="1" source="mXo3GQkAn6UmXGM8vVlt-66" target="mXo3GQkAn6UmXGM8vVlt-52" edge="1">
          <mxGeometry relative="1" as="geometry">
            <Array as="points">
              <mxPoint x="400" y="1080" />
              <mxPoint x="400" y="1080" />
            </Array>
          </mxGeometry>
        </mxCell>
        <mxCell id="mXo3GQkAn6UmXGM8vVlt-65" value="Mostrar objetivos del esgrimista" style="edgeLabel;html=1;align=center;verticalAlign=middle;resizable=0;points=[];" parent="mXo3GQkAn6UmXGM8vVlt-64" vertex="1" connectable="0">
          <mxGeometry x="0.2258" y="3" relative="1" as="geometry">
            <mxPoint x="23" y="-13" as="offset" />
          </mxGeometry>
        </mxCell>
        <mxCell id="mXo3GQkAn6UmXGM8vVlt-66" value="" style="html=1;points=[];perimeter=orthogonalPerimeter;rounded=0;shadow=0;comic=0;labelBackgroundColor=none;strokeWidth=1;fontFamily=Verdana;fontSize=12;align=center;" parent="1" vertex="1">
          <mxGeometry x="480.13" y="817" width="10" height="270" as="geometry" />
        </mxCell>
        <mxCell id="mXo3GQkAn6UmXGM8vVlt-67" value="" style="html=1;points=[];perimeter=orthogonalPerimeter;rounded=0;shadow=0;comic=0;labelBackgroundColor=none;strokeWidth=1;fontFamily=Verdana;fontSize=12;align=center;" parent="1" vertex="1">
          <mxGeometry x="285" y="1130" width="10" height="270" as="geometry" />
        </mxCell>
        <mxCell id="mXo3GQkAn6UmXGM8vVlt-68" style="edgeStyle=orthogonalEdgeStyle;rounded=0;orthogonalLoop=1;jettySize=auto;html=1;" parent="1" source="mXo3GQkAn6UmXGM8vVlt-72" target="mXo3GQkAn6UmXGM8vVlt-75" edge="1">
          <mxGeometry relative="1" as="geometry">
            <Array as="points">
              <mxPoint x="770" y="1220" />
              <mxPoint x="770" y="1220" />
            </Array>
          </mxGeometry>
        </mxCell>
        <mxCell id="mXo3GQkAn6UmXGM8vVlt-69" value="Consultar mesociclos por grupo" style="edgeLabel;html=1;align=center;verticalAlign=middle;resizable=0;points=[];" parent="mXo3GQkAn6UmXGM8vVlt-68" vertex="1" connectable="0">
          <mxGeometry x="-0.0632" relative="1" as="geometry">
            <mxPoint x="6" y="-11" as="offset" />
          </mxGeometry>
        </mxCell>
        <mxCell id="mXo3GQkAn6UmXGM8vVlt-70" style="edgeStyle=orthogonalEdgeStyle;rounded=0;orthogonalLoop=1;jettySize=auto;html=1;" parent="1" source="mXo3GQkAn6UmXGM8vVlt-72" target="mXo3GQkAn6UmXGM8vVlt-81" edge="1">
          <mxGeometry relative="1" as="geometry">
            <Array as="points">
              <mxPoint x="580" y="1360" />
              <mxPoint x="580" y="1360" />
            </Array>
          </mxGeometry>
        </mxCell>
        <mxCell id="mXo3GQkAn6UmXGM8vVlt-71" value="Enviar respuesta con &lt;br&gt;mesociclos en formato JSON" style="edgeLabel;html=1;align=center;verticalAlign=middle;resizable=0;points=[];" parent="mXo3GQkAn6UmXGM8vVlt-70" vertex="1" connectable="0">
          <mxGeometry x="-0.0183" y="1" relative="1" as="geometry">
            <mxPoint y="-21" as="offset" />
          </mxGeometry>
        </mxCell>
        <mxCell id="mXo3GQkAn6UmXGM8vVlt-72" value="" style="html=1;points=[];perimeter=orthogonalPerimeter;rounded=0;shadow=0;comic=0;labelBackgroundColor=none;strokeWidth=1;fontFamily=Verdana;fontSize=12;align=center;" parent="1" vertex="1">
          <mxGeometry x="665" y="1180" width="10" height="187" as="geometry" />
        </mxCell>
        <mxCell id="mXo3GQkAn6UmXGM8vVlt-73" style="edgeStyle=orthogonalEdgeStyle;rounded=0;orthogonalLoop=1;jettySize=auto;html=1;" parent="1" source="mXo3GQkAn6UmXGM8vVlt-75" target="mXo3GQkAn6UmXGM8vVlt-72" edge="1">
          <mxGeometry relative="1" as="geometry">
            <Array as="points">
              <mxPoint x="770" y="1300" />
              <mxPoint x="770" y="1300" />
            </Array>
          </mxGeometry>
        </mxCell>
        <mxCell id="mXo3GQkAn6UmXGM8vVlt-74" value="Encontrar mesociclos" style="edgeLabel;html=1;align=center;verticalAlign=middle;resizable=0;points=[];" parent="mXo3GQkAn6UmXGM8vVlt-73" vertex="1" connectable="0">
          <mxGeometry x="-0.0211" y="3" relative="1" as="geometry">
            <mxPoint y="-13" as="offset" />
          </mxGeometry>
        </mxCell>
        <mxCell id="mXo3GQkAn6UmXGM8vVlt-75" value="" style="html=1;points=[];perimeter=orthogonalPerimeter;rounded=0;shadow=0;comic=0;labelBackgroundColor=none;strokeWidth=1;fontFamily=Verdana;fontSize=12;align=center;" parent="1" vertex="1">
          <mxGeometry x="865" y="1220" width="10" height="87" as="geometry" />
        </mxCell>
        <mxCell id="mXo3GQkAn6UmXGM8vVlt-76" value="Dar click en &quot;Crear Nuevo&quot;" style="html=1;verticalAlign=bottom;endArrow=block;entryX=0;entryY=0;labelBackgroundColor=none;fontFamily=Verdana;fontSize=11;edgeStyle=elbowEdgeStyle;elbow=vertical;" parent="1" target="mXo3GQkAn6UmXGM8vVlt-81" edge="1">
          <mxGeometry x="-0.0061" relative="1" as="geometry">
            <mxPoint x="295" y="1137" as="sourcePoint" />
            <mxPoint as="offset" />
          </mxGeometry>
        </mxCell>
        <mxCell id="mXo3GQkAn6UmXGM8vVlt-77" style="edgeStyle=orthogonalEdgeStyle;rounded=0;orthogonalLoop=1;jettySize=auto;html=1;" parent="1" source="mXo3GQkAn6UmXGM8vVlt-81" target="mXo3GQkAn6UmXGM8vVlt-72" edge="1">
          <mxGeometry relative="1" as="geometry">
            <Array as="points">
              <mxPoint x="580" y="1180" />
              <mxPoint x="580" y="1180" />
            </Array>
          </mxGeometry>
        </mxCell>
        <mxCell id="mXo3GQkAn6UmXGM8vVlt-78" value="GET request &lt;br&gt;/group/goals/meso_cycle/:id" style="edgeLabel;html=1;align=center;verticalAlign=middle;resizable=0;points=[];" parent="mXo3GQkAn6UmXGM8vVlt-77" vertex="1" connectable="0">
          <mxGeometry x="0.1308" y="1" relative="1" as="geometry">
            <mxPoint x="-9" y="-19" as="offset" />
          </mxGeometry>
        </mxCell>
        <mxCell id="mXo3GQkAn6UmXGM8vVlt-79" style="edgeStyle=orthogonalEdgeStyle;rounded=0;orthogonalLoop=1;jettySize=auto;html=1;" parent="1" source="mXo3GQkAn6UmXGM8vVlt-81" target="mXo3GQkAn6UmXGM8vVlt-67" edge="1">
          <mxGeometry relative="1" as="geometry">
            <Array as="points">
              <mxPoint x="400" y="1400" />
              <mxPoint x="400" y="1400" />
            </Array>
          </mxGeometry>
        </mxCell>
        <mxCell id="mXo3GQkAn6UmXGM8vVlt-80" value="Mostrar mesociclos disponibles&lt;br&gt;en selector de mesociclo" style="edgeLabel;html=1;align=center;verticalAlign=middle;resizable=0;points=[];" parent="mXo3GQkAn6UmXGM8vVlt-79" vertex="1" connectable="0">
          <mxGeometry x="0.2258" y="3" relative="1" as="geometry">
            <mxPoint x="23" y="-23" as="offset" />
          </mxGeometry>
        </mxCell>
        <mxCell id="mXo3GQkAn6UmXGM8vVlt-81" value="" style="html=1;points=[];perimeter=orthogonalPerimeter;rounded=0;shadow=0;comic=0;labelBackgroundColor=none;strokeWidth=1;fontFamily=Verdana;fontSize=12;align=center;" parent="1" vertex="1">
          <mxGeometry x="480.13" y="1137" width="10" height="270" as="geometry" />
        </mxCell>
        <mxCell id="mXo3GQkAn6UmXGM8vVlt-83" value="" style="html=1;points=[];perimeter=orthogonalPerimeter;rounded=0;shadow=0;comic=0;labelBackgroundColor=none;strokeWidth=1;fontFamily=Verdana;fontSize=12;align=center;" parent="1" vertex="1">
          <mxGeometry x="285" y="1460" width="10" height="270" as="geometry" />
        </mxCell>
        <mxCell id="mXo3GQkAn6UmXGM8vVlt-84" style="edgeStyle=orthogonalEdgeStyle;rounded=0;orthogonalLoop=1;jettySize=auto;html=1;" parent="1" source="mXo3GQkAn6UmXGM8vVlt-88" target="mXo3GQkAn6UmXGM8vVlt-91" edge="1">
          <mxGeometry relative="1" as="geometry">
            <Array as="points">
              <mxPoint x="770" y="1550" />
              <mxPoint x="770" y="1550" />
            </Array>
          </mxGeometry>
        </mxCell>
        <mxCell id="mXo3GQkAn6UmXGM8vVlt-85" value="Guardar objetivo en la BD" style="edgeLabel;html=1;align=center;verticalAlign=middle;resizable=0;points=[];" parent="mXo3GQkAn6UmXGM8vVlt-84" vertex="1" connectable="0">
          <mxGeometry x="-0.0632" relative="1" as="geometry">
            <mxPoint x="6" y="-11" as="offset" />
          </mxGeometry>
        </mxCell>
        <mxCell id="mXo3GQkAn6UmXGM8vVlt-86" style="edgeStyle=orthogonalEdgeStyle;rounded=0;orthogonalLoop=1;jettySize=auto;html=1;" parent="1" source="mXo3GQkAn6UmXGM8vVlt-88" target="mXo3GQkAn6UmXGM8vVlt-97" edge="1">
          <mxGeometry relative="1" as="geometry">
            <Array as="points">
              <mxPoint x="580" y="1690" />
              <mxPoint x="580" y="1690" />
            </Array>
          </mxGeometry>
        </mxCell>
        <mxCell id="mXo3GQkAn6UmXGM8vVlt-87" value="Enviar codigo 200 con &lt;br&gt;objetivo en formato JSON" style="edgeLabel;html=1;align=center;verticalAlign=middle;resizable=0;points=[];" parent="mXo3GQkAn6UmXGM8vVlt-86" vertex="1" connectable="0">
          <mxGeometry x="-0.0183" y="1" relative="1" as="geometry">
            <mxPoint y="-21" as="offset" />
          </mxGeometry>
        </mxCell>
        <mxCell id="mXo3GQkAn6UmXGM8vVlt-88" value="" style="html=1;points=[];perimeter=orthogonalPerimeter;rounded=0;shadow=0;comic=0;labelBackgroundColor=none;strokeWidth=1;fontFamily=Verdana;fontSize=12;align=center;" parent="1" vertex="1">
          <mxGeometry x="665" y="1510" width="10" height="187" as="geometry" />
        </mxCell>
        <mxCell id="mXo3GQkAn6UmXGM8vVlt-89" style="edgeStyle=orthogonalEdgeStyle;rounded=0;orthogonalLoop=1;jettySize=auto;html=1;" parent="1" source="mXo3GQkAn6UmXGM8vVlt-91" target="mXo3GQkAn6UmXGM8vVlt-88" edge="1">
          <mxGeometry relative="1" as="geometry">
            <Array as="points">
              <mxPoint x="770" y="1630" />
              <mxPoint x="770" y="1630" />
            </Array>
          </mxGeometry>
        </mxCell>
        <mxCell id="mXo3GQkAn6UmXGM8vVlt-90" value="Devolver objetivo guardado" style="edgeLabel;html=1;align=center;verticalAlign=middle;resizable=0;points=[];" parent="mXo3GQkAn6UmXGM8vVlt-89" vertex="1" connectable="0">
          <mxGeometry x="-0.0211" y="3" relative="1" as="geometry">
            <mxPoint y="-13" as="offset" />
          </mxGeometry>
        </mxCell>
        <mxCell id="mXo3GQkAn6UmXGM8vVlt-91" value="" style="html=1;points=[];perimeter=orthogonalPerimeter;rounded=0;shadow=0;comic=0;labelBackgroundColor=none;strokeWidth=1;fontFamily=Verdana;fontSize=12;align=center;" parent="1" vertex="1">
          <mxGeometry x="865" y="1550" width="10" height="87" as="geometry" />
        </mxCell>
        <mxCell id="mXo3GQkAn6UmXGM8vVlt-92" value="Llenar contenido del objetivo&lt;br&gt;y dar click en &quot;confirmar&quot;" style="html=1;verticalAlign=bottom;endArrow=block;entryX=0;entryY=0;labelBackgroundColor=none;fontFamily=Verdana;fontSize=11;edgeStyle=elbowEdgeStyle;elbow=vertical;" parent="1" target="mXo3GQkAn6UmXGM8vVlt-97" edge="1">
          <mxGeometry x="-0.0061" relative="1" as="geometry">
            <mxPoint x="295" y="1467" as="sourcePoint" />
            <mxPoint as="offset" />
          </mxGeometry>
        </mxCell>
        <mxCell id="mXo3GQkAn6UmXGM8vVlt-93" style="edgeStyle=orthogonalEdgeStyle;rounded=0;orthogonalLoop=1;jettySize=auto;html=1;" parent="1" source="mXo3GQkAn6UmXGM8vVlt-97" target="mXo3GQkAn6UmXGM8vVlt-88" edge="1">
          <mxGeometry relative="1" as="geometry">
            <Array as="points">
              <mxPoint x="580" y="1510" />
              <mxPoint x="580" y="1510" />
            </Array>
          </mxGeometry>
        </mxCell>
        <mxCell id="mXo3GQkAn6UmXGM8vVlt-94" value="POST request &lt;br&gt;/cyclegoal_routes/" style="edgeLabel;html=1;align=center;verticalAlign=middle;resizable=0;points=[];" parent="mXo3GQkAn6UmXGM8vVlt-93" vertex="1" connectable="0">
          <mxGeometry x="0.1308" y="1" relative="1" as="geometry">
            <mxPoint x="-9" y="-19" as="offset" />
          </mxGeometry>
        </mxCell>
        <mxCell id="mXo3GQkAn6UmXGM8vVlt-95" style="edgeStyle=orthogonalEdgeStyle;rounded=0;orthogonalLoop=1;jettySize=auto;html=1;" parent="1" source="mXo3GQkAn6UmXGM8vVlt-97" target="mXo3GQkAn6UmXGM8vVlt-83" edge="1">
          <mxGeometry relative="1" as="geometry">
            <Array as="points">
              <mxPoint x="400" y="1730" />
              <mxPoint x="400" y="1730" />
            </Array>
          </mxGeometry>
        </mxCell>
        <mxCell id="mXo3GQkAn6UmXGM8vVlt-96" value="Mostrar confirmación de guardado" style="edgeLabel;html=1;align=center;verticalAlign=middle;resizable=0;points=[];" parent="mXo3GQkAn6UmXGM8vVlt-95" vertex="1" connectable="0">
          <mxGeometry x="0.2258" y="3" relative="1" as="geometry">
            <mxPoint x="23" y="-13" as="offset" />
          </mxGeometry>
        </mxCell>
        <mxCell id="mXo3GQkAn6UmXGM8vVlt-97" value="" style="html=1;points=[];perimeter=orthogonalPerimeter;rounded=0;shadow=0;comic=0;labelBackgroundColor=none;strokeWidth=1;fontFamily=Verdana;fontSize=12;align=center;" parent="1" vertex="1">
          <mxGeometry x="480.13" y="1467" width="10" height="270" as="geometry" />
        </mxCell>
      </root>
    </mxGraphModel>
  </diagram>
</mxfile>
